<?xml version="1.0" encoding="UTF-8"?>
<svg version="1.1" baseProfile="tiny" xmlns="http://www.w3.org/2000/svg" width="1024" height="1024">
<rect shape-rendering="optimizeSpeed"  x="0" y="0" width="1024" height="1024" fill="white" />
<rect shape-rendering="optimizeSpeed"  x="49" y="49" width="37" height="37" fill="black" />
<rect shape-rendering="optimizeSpeed"  x="86" y="49" width="37" height="37" fill="black" />
<rect shape-rendering="optimizeSpeed"  x="123" y="49" width="37" height="37" fill="black" />
<rect shape-rendering="optimizeSpeed"  x="160" y="49" width="37" height="37" fill="black" />
<rect shape-rendering="optimizeSpeed"  x="197" y="49" width="37" height="37" fill="black" />
<rect shape-rendering="optimizeSpeed"  x="234" y="49" width="37" height="37" fill="black" />
<rect shape-rendering="optimizeSpeed"  x="271" y="49" width="37" height="37" fill="black" />
<rect shape-rendering="optimizeSpeed"  x="456" y="49" width="37" height="37" fill="black" />
<rect shape-rendering="optimizeSpeed"  x="530" y="49" width="37" height="37" fill="black" />
<rect shape-rendering="optimizeSpeed"  x="567" y="49" width="37" height="37" fill="black" />
<rect shape-rendering="optimizeSpeed"  x="641" y="49" width="37" height="37" fill="black" />
<rect shape-rendering="optimizeSpeed"  x="715" y="49" width="37" height="37" fill="black" />
<rect shape-rendering="optimizeSpeed"  x="752" y="49" width="37" height="37" fill="black" />
<rect shape-rendering="optimizeSpeed"  x="789" y="49" width="37" height="37" fill="black" />
<rect shape-rendering="optimizeSpeed"  x="826" y="49" width="37" height="37" fill="black" />
<rect shape-rendering="optimizeSpeed"  x="863" y="49" width="37" height="37" fill="black" />
<rect shape-rendering="optimizeSpeed"  x="900" y="49" width="37" height="37" fill="black" />
<rect shape-rendering="optimizeSpeed"  x="937" y="49" width="37" height="37" fill="black" />
<rect shape-rendering="optimizeSpeed"  x="49" y="86" width="37" height="37" fill="black" />
<rect shape-rendering="optimizeSpeed"  x="271" y="86" width="37" height="37" fill="black" />
<rect shape-rendering="optimizeSpeed"  x="345" y="86" width="37" height="37" fill="black" />
<rect shape-rendering="optimizeSpeed"  x="419" y="86" width="37" height="37" fill="black" />
<rect shape-rendering="optimizeSpeed"  x="493" y="86" width="37" height="37" fill="black" />
<rect shape-rendering="optimizeSpeed"  x="604" y="86" width="37" height="37" fill="black" />
<rect shape-rendering="optimizeSpeed"  x="641" y="86" width="37" height="37" fill="black" />
<rect shape-rendering="optimizeSpeed"  x="715" y="86" width="37" height="37" fill="black" />
<rect shape-rendering="optimizeSpeed"  x="937" y="86" width="37" height="37" fill="black" />
<rect shape-rendering="optimizeSpeed"  x="49" y="123" width="37" height="37" fill="black" />
<rect shape-rendering="optimizeSpeed"  x="123" y="123" width="37" height="37" fill="black" />
<rect shape-rendering="optimizeSpeed"  x="160" y="123" width="37" height="37" fill="black" />
<rect shape-rendering="optimizeSpeed"  x="197" y="123" width="37" height="37" fill="black" />
<rect shape-rendering="optimizeSpeed"  x="271" y="123" width="37" height="37" fill="black" />
<rect shape-rendering="optimizeSpeed"  x="382" y="123" width="37" height="37" fill="black" />
<rect shape-rendering="optimizeSpeed"  x="419" y="123" width="37" height="37" fill="black" />
<rect shape-rendering="optimizeSpeed"  x="604" y="123" width="37" height="37" fill="black" />
<rect shape-rendering="optimizeSpeed"  x="641" y="123" width="37" height="37" fill="black" />
<rect shape-rendering="optimizeSpeed"  x="715" y="123" width="37" height="37" fill="black" />
<rect shape-rendering="optimizeSpeed"  x="789" y="123" width="37" height="37" fill="black" />
<rect shape-rendering="optimizeSpeed"  x="826" y="123" width="37" height="37" fill="black" />
<rect shape-rendering="optimizeSpeed"  x="863" y="123" width="37" height="37" fill="black" />
<rect shape-rendering="optimizeSpeed"  x="937" y="123" width="37" height="37" fill="black" />
<rect shape-rendering="optimizeSpeed"  x="49" y="160" width="37" height="37" fill="black" />
<rect shape-rendering="optimizeSpeed"  x="123" y="160" width="37" height="37" fill="black" />
<rect shape-rendering="optimizeSpeed"  x="160" y="160" width="37" height="37" fill="black" />
<rect shape-rendering="optimizeSpeed"  x="197" y="160" width="37" height="37" fill="black" />
<rect shape-rendering="optimizeSpeed"  x="271" y="160" width="37" height="37" fill="black" />
<rect shape-rendering="optimizeSpeed"  x="345" y="160" width="37" height="37" fill="black" />
<rect shape-rendering="optimizeSpeed"  x="419" y="160" width="37" height="37" fill="black" />
<rect shape-rendering="optimizeSpeed"  x="530" y="160" width="37" height="37" fill="black" />
<rect shape-rendering="optimizeSpeed"  x="715" y="160" width="37" height="37" fill="black" />
<rect shape-rendering="optimizeSpeed"  x="789" y="160" width="37" height="37" fill="black" />
<rect shape-rendering="optimizeSpeed"  x="826" y="160" width="37" height="37" fill="black" />
<rect shape-rendering="optimizeSpeed"  x="863" y="160" width="37" height="37" fill="black" />
<rect shape-rendering="optimizeSpeed"  x="937" y="160" width="37" height="37" fill="black" />
<rect shape-rendering="optimizeSpeed"  x="49" y="197" width="37" height="37" fill="black" />
<rect shape-rendering="optimizeSpeed"  x="123" y="197" width="37" height="37" fill="black" />
<rect shape-rendering="optimizeSpeed"  x="160" y="197" width="37" height="37" fill="black" />
<rect shape-rendering="optimizeSpeed"  x="197" y="197" width="37" height="37" fill="black" />
<rect shape-rendering="optimizeSpeed"  x="271" y="197" width="37" height="37" fill="black" />
<rect shape-rendering="optimizeSpeed"  x="382" y="197" width="37" height="37" fill="black" />
<rect shape-rendering="optimizeSpeed"  x="419" y="197" width="37" height="37" fill="black" />
<rect shape-rendering="optimizeSpeed"  x="456" y="197" width="37" height="37" fill="black" />
<rect shape-rendering="optimizeSpeed"  x="530" y="197" width="37" height="37" fill="black" />
<rect shape-rendering="optimizeSpeed"  x="567" y="197" width="37" height="37" fill="black" />
<rect shape-rendering="optimizeSpeed"  x="641" y="197" width="37" height="37" fill="black" />
<rect shape-rendering="optimizeSpeed"  x="715" y="197" width="37" height="37" fill="black" />
<rect shape-rendering="optimizeSpeed"  x="789" y="197" width="37" height="37" fill="black" />
<rect shape-rendering="optimizeSpeed"  x="826" y="197" width="37" height="37" fill="black" />
<rect shape-rendering="optimizeSpeed"  x="863" y="197" width="37" height="37" fill="black" />
<rect shape-rendering="optimizeSpeed"  x="937" y="197" width="37" height="37" fill="black" />
<rect shape-rendering="optimizeSpeed"  x="49" y="234" width="37" height="37" fill="black" />
<rect shape-rendering="optimizeSpeed"  x="271" y="234" width="37" height="37" fill="black" />
<rect shape-rendering="optimizeSpeed"  x="345" y="234" width="37" height="37" fill="black" />
<rect shape-rendering="optimizeSpeed"  x="530" y="234" width="37" height="37" fill="black" />
<rect shape-rendering="optimizeSpeed"  x="604" y="234" width="37" height="37" fill="black" />
<rect shape-rendering="optimizeSpeed"  x="715" y="234" width="37" height="37" fill="black" />
<rect shape-rendering="optimizeSpeed"  x="937" y="234" width="37" height="37" fill="black" />
<rect shape-rendering="optimizeSpeed"  x="49" y="271" width="37" height="37" fill="black" />
<rect shape-rendering="optimizeSpeed"  x="86" y="271" width="37" height="37" fill="black" />
<rect shape-rendering="optimizeSpeed"  x="123" y="271" width="37" height="37" fill="black" />
<rect shape-rendering="optimizeSpeed"  x="160" y="271" width="37" height="37" fill="black" />
<rect shape-rendering="optimizeSpeed"  x="197" y="271" width="37" height="37" fill="black" />
<rect shape-rendering="optimizeSpeed"  x="234" y="271" width="37" height="37" fill="black" />
<rect shape-rendering="optimizeSpeed"  x="271" y="271" width="37" height="37" fill="black" />
<rect shape-rendering="optimizeSpeed"  x="345" y="271" width="37" height="37" fill="black" />
<rect shape-rendering="optimizeSpeed"  x="419" y="271" width="37" height="37" fill="black" />
<rect shape-rendering="optimizeSpeed"  x="493" y="271" width="37" height="37" fill="black" />
<rect shape-rendering="optimizeSpeed"  x="567" y="271" width="37" height="37" fill="black" />
<rect shape-rendering="optimizeSpeed"  x="641" y="271" width="37" height="37" fill="black" />
<rect shape-rendering="optimizeSpeed"  x="715" y="271" width="37" height="37" fill="black" />
<rect shape-rendering="optimizeSpeed"  x="752" y="271" width="37" height="37" fill="black" />
<rect shape-rendering="optimizeSpeed"  x="789" y="271" width="37" height="37" fill="black" />
<rect shape-rendering="optimizeSpeed"  x="826" y="271" width="37" height="37" fill="black" />
<rect shape-rendering="optimizeSpeed"  x="863" y="271" width="37" height="37" fill="black" />
<rect shape-rendering="optimizeSpeed"  x="900" y="271" width="37" height="37" fill="black" />
<rect shape-rendering="optimizeSpeed"  x="937" y="271" width="37" height="37" fill="black" />
<rect shape-rendering="optimizeSpeed"  x="382" y="308" width="37" height="37" fill="black" />
<rect shape-rendering="optimizeSpeed"  x="456" y="308" width="37" height="37" fill="black" />
<rect shape-rendering="optimizeSpeed"  x="493" y="308" width="37" height="37" fill="black" />
<rect shape-rendering="optimizeSpeed"  x="641" y="308" width="37" height="37" fill="black" />
<rect shape-rendering="optimizeSpeed"  x="49" y="345" width="37" height="37" fill="black" />
<rect shape-rendering="optimizeSpeed"  x="86" y="345" width="37" height="37" fill="black" />
<rect shape-rendering="optimizeSpeed"  x="123" y="345" width="37" height="37" fill="black" />
<rect shape-rendering="optimizeSpeed"  x="160" y="345" width="37" height="37" fill="black" />
<rect shape-rendering="optimizeSpeed"  x="197" y="345" width="37" height="37" fill="black" />
<rect shape-rendering="optimizeSpeed"  x="271" y="345" width="37" height="37" fill="black" />
<rect shape-rendering="optimizeSpeed"  x="308" y="345" width="37" height="37" fill="black" />
<rect shape-rendering="optimizeSpeed"  x="345" y="345" width="37" height="37" fill="black" />
<rect shape-rendering="optimizeSpeed"  x="419" y="345" width="37" height="37" fill="black" />
<rect shape-rendering="optimizeSpeed"  x="530" y="345" width="37" height="37" fill="black" />
<rect shape-rendering="optimizeSpeed"  x="678" y="345" width="37" height="37" fill="black" />
<rect shape-rendering="optimizeSpeed"  x="752" y="345" width="37" height="37" fill="black" />
<rect shape-rendering="optimizeSpeed"  x="826" y="345" width="37" height="37" fill="black" />
<rect shape-rendering="optimizeSpeed"  x="900" y="345" width="37" height="37" fill="black" />
<rect shape-rendering="optimizeSpeed"  x="123" y="382" width="37" height="37" fill="black" />
<rect shape-rendering="optimizeSpeed"  x="160" y="382" width="37" height="37" fill="black" />
<rect shape-rendering="optimizeSpeed"  x="308" y="382" width="37" height="37" fill="black" />
<rect shape-rendering="optimizeSpeed"  x="345" y="382" width="37" height="37" fill="black" />
<rect shape-rendering="optimizeSpeed"  x="382" y="382" width="37" height="37" fill="black" />
<rect shape-rendering="optimizeSpeed"  x="456" y="382" width="37" height="37" fill="black" />
<rect shape-rendering="optimizeSpeed"  x="567" y="382" width="37" height="37" fill="black" />
<rect shape-rendering="optimizeSpeed"  x="752" y="382" width="37" height="37" fill="black" />
<rect shape-rendering="optimizeSpeed"  x="900" y="382" width="37" height="37" fill="black" />
<rect shape-rendering="optimizeSpeed"  x="49" y="419" width="37" height="37" fill="black" />
<rect shape-rendering="optimizeSpeed"  x="86" y="419" width="37" height="37" fill="black" />
<rect shape-rendering="optimizeSpeed"  x="123" y="419" width="37" height="37" fill="black" />
<rect shape-rendering="optimizeSpeed"  x="234" y="419" width="37" height="37" fill="black" />
<rect shape-rendering="optimizeSpeed"  x="271" y="419" width="37" height="37" fill="black" />
<rect shape-rendering="optimizeSpeed"  x="382" y="419" width="37" height="37" fill="black" />
<rect shape-rendering="optimizeSpeed"  x="419" y="419" width="37" height="37" fill="black" />
<rect shape-rendering="optimizeSpeed"  x="493" y="419" width="37" height="37" fill="black" />
<rect shape-rendering="optimizeSpeed"  x="530" y="419" width="37" height="37" fill="black" />
<rect shape-rendering="optimizeSpeed"  x="604" y="419" width="37" height="37" fill="black" />
<rect shape-rendering="optimizeSpeed"  x="641" y="419" width="37" height="37" fill="black" />
<rect shape-rendering="optimizeSpeed"  x="715" y="419" width="37" height="37" fill="black" />
<rect shape-rendering="optimizeSpeed"  x="789" y="419" width="37" height="37" fill="black" />
<rect shape-rendering="optimizeSpeed"  x="826" y="419" width="37" height="37" fill="black" />
<rect shape-rendering="optimizeSpeed"  x="900" y="419" width="37" height="37" fill="black" />
<rect shape-rendering="optimizeSpeed"  x="937" y="419" width="37" height="37" fill="black" />
<rect shape-rendering="optimizeSpeed"  x="86" y="456" width="37" height="37" fill="black" />
<rect shape-rendering="optimizeSpeed"  x="197" y="456" width="37" height="37" fill="black" />
<rect shape-rendering="optimizeSpeed"  x="345" y="456" width="37" height="37" fill="black" />
<rect shape-rendering="optimizeSpeed"  x="382" y="456" width="37" height="37" fill="black" />
<rect shape-rendering="optimizeSpeed"  x="419" y="456" width="37" height="37" fill="black" />
<rect shape-rendering="optimizeSpeed"  x="493" y="456" width="37" height="37" fill="black" />
<rect shape-rendering="optimizeSpeed"  x="567" y="456" width="37" height="37" fill="black" />
<rect shape-rendering="optimizeSpeed"  x="678" y="456" width="37" height="37" fill="black" />
<rect shape-rendering="optimizeSpeed"  x="752" y="456" width="37" height="37" fill="black" />
<rect shape-rendering="optimizeSpeed"  x="789" y="456" width="37" height="37" fill="black" />
<rect shape-rendering="optimizeSpeed"  x="937" y="456" width="37" height="37" fill="black" />
<rect shape-rendering="optimizeSpeed"  x="86" y="493" width="37" height="37" fill="black" />
<rect shape-rendering="optimizeSpeed"  x="123" y="493" width="37" height="37" fill="black" />
<rect shape-rendering="optimizeSpeed"  x="160" y="493" width="37" height="37" fill="black" />
<rect shape-rendering="optimizeSpeed"  x="271" y="493" width="37" height="37" fill="black" />
<rect shape-rendering="optimizeSpeed"  x="308" y="493" width="37" height="37" fill="black" />
<rect shape-rendering="optimizeSpeed"  x="345" y="493" width="37" height="37" fill="black" />
<rect shape-rendering="optimizeSpeed"  x="382" y="493" width="37" height="37" fill="black" />
<rect shape-rendering="optimizeSpeed"  x="530" y="493" width="37" height="37" fill="black" />
<rect shape-rendering="optimizeSpeed"  x="604" y="493" width="37" height="37" fill="black" />
<rect shape-rendering="optimizeSpeed"  x="641" y="493" width="37" height="37" fill="black" />
<rect shape-rendering="optimizeSpeed"  x="678" y="493" width="37" height="37" fill="black" />
<rect shape-rendering="optimizeSpeed"  x="715" y="493" width="37" height="37" fill="black" />
<rect shape-rendering="optimizeSpeed"  x="789" y="493" width="37" height="37" fill="black" />
<rect shape-rendering="optimizeSpeed"  x="863" y="493" width="37" height="37" fill="black" />
<rect shape-rendering="optimizeSpeed"  x="900" y="493" width="37" height="37" fill="black" />
<rect shape-rendering="optimizeSpeed"  x="937" y="493" width="37" height="37" fill="black" />
<rect shape-rendering="optimizeSpeed"  x="49" y="530" width="37" height="37" fill="black" />
<rect shape-rendering="optimizeSpeed"  x="86" y="530" width="37" height="37" fill="black" />
<rect shape-rendering="optimizeSpeed"  x="160" y="530" width="37" height="37" fill="black" />
<rect shape-rendering="optimizeSpeed"  x="197" y="530" width="37" height="37" fill="black" />
<rect shape-rendering="optimizeSpeed"  x="308" y="530" width="37" height="37" fill="black" />
<rect shape-rendering="optimizeSpeed"  x="456" y="530" width="37" height="37" fill="black" />
<rect shape-rendering="optimizeSpeed"  x="567" y="530" width="37" height="37" fill="black" />
<rect shape-rendering="optimizeSpeed"  x="641" y="530" width="37" height="37" fill="black" />
<rect shape-rendering="optimizeSpeed"  x="752" y="530" width="37" height="37" fill="black" />
<rect shape-rendering="optimizeSpeed"  x="826" y="530" width="37" height="37" fill="black" />
<rect shape-rendering="optimizeSpeed"  x="900" y="530" width="37" height="37" fill="black" />
<rect shape-rendering="optimizeSpeed"  x="49" y="567" width="37" height="37" fill="black" />
<rect shape-rendering="optimizeSpeed"  x="123" y="567" width="37" height="37" fill="black" />
<rect shape-rendering="optimizeSpeed"  x="197" y="567" width="37" height="37" fill="black" />
<rect shape-rendering="optimizeSpeed"  x="271" y="567" width="37" height="37" fill="black" />
<rect shape-rendering="optimizeSpeed"  x="308" y="567" width="37" height="37" fill="black" />
<rect shape-rendering="optimizeSpeed"  x="345" y="567" width="37" height="37" fill="black" />
<rect shape-rendering="optimizeSpeed"  x="493" y="567" width="37" height="37" fill="black" />
<rect shape-rendering="optimizeSpeed"  x="604" y="567" width="37" height="37" fill="black" />
<rect shape-rendering="optimizeSpeed"  x="641" y="567" width="37" height="37" fill="black" />
<rect shape-rendering="optimizeSpeed"  x="752" y="567" width="37" height="37" fill="black" />
<rect shape-rendering="optimizeSpeed"  x="826" y="567" width="37" height="37" fill="black" />
<rect shape-rendering="optimizeSpeed"  x="900" y="567" width="37" height="37" fill="black" />
<rect shape-rendering="optimizeSpeed"  x="937" y="567" width="37" height="37" fill="black" />
<rect shape-rendering="optimizeSpeed"  x="49" y="604" width="37" height="37" fill="black" />
<rect shape-rendering="optimizeSpeed"  x="160" y="604" width="37" height="37" fill="black" />
<rect shape-rendering="optimizeSpeed"  x="197" y="604" width="37" height="37" fill="black" />
<rect shape-rendering="optimizeSpeed"  x="308" y="604" width="37" height="37" fill="black" />
<rect shape-rendering="optimizeSpeed"  x="345" y="604" width="37" height="37" fill="black" />
<rect shape-rendering="optimizeSpeed"  x="419" y="604" width="37" height="37" fill="black" />
<rect shape-rendering="optimizeSpeed"  x="493" y="604" width="37" height="37" fill="black" />
<rect shape-rendering="optimizeSpeed"  x="604" y="604" width="37" height="37" fill="black" />
<rect shape-rendering="optimizeSpeed"  x="641" y="604" width="37" height="37" fill="black" />
<rect shape-rendering="optimizeSpeed"  x="678" y="604" width="37" height="37" fill="black" />
<rect shape-rendering="optimizeSpeed"  x="715" y="604" width="37" height="37" fill="black" />
<rect shape-rendering="optimizeSpeed"  x="789" y="604" width="37" height="37" fill="black" />
<rect shape-rendering="optimizeSpeed"  x="826" y="604" width="37" height="37" fill="black" />
<rect shape-rendering="optimizeSpeed"  x="937" y="604" width="37" height="37" fill="black" />
<rect shape-rendering="optimizeSpeed"  x="49" y="641" width="37" height="37" fill="black" />
<rect shape-rendering="optimizeSpeed"  x="123" y="641" width="37" height="37" fill="black" />
<rect shape-rendering="optimizeSpeed"  x="197" y="641" width="37" height="37" fill="black" />
<rect shape-rendering="optimizeSpeed"  x="271" y="641" width="37" height="37" fill="black" />
<rect shape-rendering="optimizeSpeed"  x="308" y="641" width="37" height="37" fill="black" />
<rect shape-rendering="optimizeSpeed"  x="382" y="641" width="37" height="37" fill="black" />
<rect shape-rendering="optimizeSpeed"  x="419" y="641" width="37" height="37" fill="black" />
<rect shape-rendering="optimizeSpeed"  x="530" y="641" width="37" height="37" fill="black" />
<rect shape-rendering="optimizeSpeed"  x="604" y="641" width="37" height="37" fill="black" />
<rect shape-rendering="optimizeSpeed"  x="641" y="641" width="37" height="37" fill="black" />
<rect shape-rendering="optimizeSpeed"  x="678" y="641" width="37" height="37" fill="black" />
<rect shape-rendering="optimizeSpeed"  x="715" y="641" width="37" height="37" fill="black" />
<rect shape-rendering="optimizeSpeed"  x="752" y="641" width="37" height="37" fill="black" />
<rect shape-rendering="optimizeSpeed"  x="789" y="641" width="37" height="37" fill="black" />
<rect shape-rendering="optimizeSpeed"  x="863" y="641" width="37" height="37" fill="black" />
<rect shape-rendering="optimizeSpeed"  x="345" y="678" width="37" height="37" fill="black" />
<rect shape-rendering="optimizeSpeed"  x="382" y="678" width="37" height="37" fill="black" />
<rect shape-rendering="optimizeSpeed"  x="456" y="678" width="37" height="37" fill="black" />
<rect shape-rendering="optimizeSpeed"  x="567" y="678" width="37" height="37" fill="black" />
<rect shape-rendering="optimizeSpeed"  x="641" y="678" width="37" height="37" fill="black" />
<rect shape-rendering="optimizeSpeed"  x="789" y="678" width="37" height="37" fill="black" />
<rect shape-rendering="optimizeSpeed"  x="826" y="678" width="37" height="37" fill="black" />
<rect shape-rendering="optimizeSpeed"  x="863" y="678" width="37" height="37" fill="black" />
<rect shape-rendering="optimizeSpeed"  x="49" y="715" width="37" height="37" fill="black" />
<rect shape-rendering="optimizeSpeed"  x="86" y="715" width="37" height="37" fill="black" />
<rect shape-rendering="optimizeSpeed"  x="123" y="715" width="37" height="37" fill="black" />
<rect shape-rendering="optimizeSpeed"  x="160" y="715" width="37" height="37" fill="black" />
<rect shape-rendering="optimizeSpeed"  x="197" y="715" width="37" height="37" fill="black" />
<rect shape-rendering="optimizeSpeed"  x="234" y="715" width="37" height="37" fill="black" />
<rect shape-rendering="optimizeSpeed"  x="271" y="715" width="37" height="37" fill="black" />
<rect shape-rendering="optimizeSpeed"  x="345" y="715" width="37" height="37" fill="black" />
<rect shape-rendering="optimizeSpeed"  x="382" y="715" width="37" height="37" fill="black" />
<rect shape-rendering="optimizeSpeed"  x="641" y="715" width="37" height="37" fill="black" />
<rect shape-rendering="optimizeSpeed"  x="715" y="715" width="37" height="37" fill="black" />
<rect shape-rendering="optimizeSpeed"  x="789" y="715" width="37" height="37" fill="black" />
<rect shape-rendering="optimizeSpeed"  x="826" y="715" width="37" height="37" fill="black" />
<rect shape-rendering="optimizeSpeed"  x="863" y="715" width="37" height="37" fill="black" />
<rect shape-rendering="optimizeSpeed"  x="900" y="715" width="37" height="37" fill="black" />
<rect shape-rendering="optimizeSpeed"  x="937" y="715" width="37" height="37" fill="black" />
<rect shape-rendering="optimizeSpeed"  x="49" y="752" width="37" height="37" fill="black" />
<rect shape-rendering="optimizeSpeed"  x="271" y="752" width="37" height="37" fill="black" />
<rect shape-rendering="optimizeSpeed"  x="382" y="752" width="37" height="37" fill="black" />
<rect shape-rendering="optimizeSpeed"  x="419" y="752" width="37" height="37" fill="black" />
<rect shape-rendering="optimizeSpeed"  x="493" y="752" width="37" height="37" fill="black" />
<rect shape-rendering="optimizeSpeed"  x="641" y="752" width="37" height="37" fill="black" />
<rect shape-rendering="optimizeSpeed"  x="789" y="752" width="37" height="37" fill="black" />
<rect shape-rendering="optimizeSpeed"  x="826" y="752" width="37" height="37" fill="black" />
<rect shape-rendering="optimizeSpeed"  x="937" y="752" width="37" height="37" fill="black" />
<rect shape-rendering="optimizeSpeed"  x="49" y="789" width="37" height="37" fill="black" />
<rect shape-rendering="optimizeSpeed"  x="123" y="789" width="37" height="37" fill="black" />
<rect shape-rendering="optimizeSpeed"  x="160" y="789" width="37" height="37" fill="black" />
<rect shape-rendering="optimizeSpeed"  x="197" y="789" width="37" height="37" fill="black" />
<rect shape-rendering="optimizeSpeed"  x="271" y="789" width="37" height="37" fill="black" />
<rect shape-rendering="optimizeSpeed"  x="345" y="789" width="37" height="37" fill="black" />
<rect shape-rendering="optimizeSpeed"  x="382" y="789" width="37" height="37" fill="black" />
<rect shape-rendering="optimizeSpeed"  x="419" y="789" width="37" height="37" fill="black" />
<rect shape-rendering="optimizeSpeed"  x="493" y="789" width="37" height="37" fill="black" />
<rect shape-rendering="optimizeSpeed"  x="530" y="789" width="37" height="37" fill="black" />
<rect shape-rendering="optimizeSpeed"  x="604" y="789" width="37" height="37" fill="black" />
<rect shape-rendering="optimizeSpeed"  x="641" y="789" width="37" height="37" fill="black" />
<rect shape-rendering="optimizeSpeed"  x="678" y="789" width="37" height="37" fill="black" />
<rect shape-rendering="optimizeSpeed"  x="715" y="789" width="37" height="37" fill="black" />
<rect shape-rendering="optimizeSpeed"  x="752" y="789" width="37" height="37" fill="black" />
<rect shape-rendering="optimizeSpeed"  x="789" y="789" width="37" height="37" fill="black" />
<rect shape-rendering="optimizeSpeed"  x="826" y="789" width="37" height="37" fill="black" />
<rect shape-rendering="optimizeSpeed"  x="863" y="789" width="37" height="37" fill="black" />
<rect shape-rendering="optimizeSpeed"  x="937" y="789" width="37" height="37" fill="black" />
<rect shape-rendering="optimizeSpeed"  x="49" y="826" width="37" height="37" fill="black" />
<rect shape-rendering="optimizeSpeed"  x="123" y="826" width="37" height="37" fill="black" />
<rect shape-rendering="optimizeSpeed"  x="160" y="826" width="37" height="37" fill="black" />
<rect shape-rendering="optimizeSpeed"  x="197" y="826" width="37" height="37" fill="black" />
<rect shape-rendering="optimizeSpeed"  x="271" y="826" width="37" height="37" fill="black" />
<rect shape-rendering="optimizeSpeed"  x="345" y="826" width="37" height="37" fill="black" />
<rect shape-rendering="optimizeSpeed"  x="382" y="826" width="37" height="37" fill="black" />
<rect shape-rendering="optimizeSpeed"  x="419" y="826" width="37" height="37" fill="black" />
<rect shape-rendering="optimizeSpeed"  x="456" y="826" width="37" height="37" fill="black" />
<rect shape-rendering="optimizeSpeed"  x="567" y="826" width="37" height="37" fill="black" />
<rect shape-rendering="optimizeSpeed"  x="604" y="826" width="37" height="37" fill="black" />
<rect shape-rendering="optimizeSpeed"  x="678" y="826" width="37" height="37" fill="black" />
<rect shape-rendering="optimizeSpeed"  x="715" y="826" width="37" height="37" fill="black" />
<rect shape-rendering="optimizeSpeed"  x="789" y="826" width="37" height="37" fill="black" />
<rect shape-rendering="optimizeSpeed"  x="863" y="826" width="37" height="37" fill="black" />
<rect shape-rendering="optimizeSpeed"  x="49" y="863" width="37" height="37" fill="black" />
<rect shape-rendering="optimizeSpeed"  x="123" y="863" width="37" height="37" fill="black" />
<rect shape-rendering="optimizeSpeed"  x="160" y="863" width="37" height="37" fill="black" />
<rect shape-rendering="optimizeSpeed"  x="197" y="863" width="37" height="37" fill="black" />
<rect shape-rendering="optimizeSpeed"  x="271" y="863" width="37" height="37" fill="black" />
<rect shape-rendering="optimizeSpeed"  x="345" y="863" width="37" height="37" fill="black" />
<rect shape-rendering="optimizeSpeed"  x="419" y="863" width="37" height="37" fill="black" />
<rect shape-rendering="optimizeSpeed"  x="530" y="863" width="37" height="37" fill="black" />
<rect shape-rendering="optimizeSpeed"  x="752" y="863" width="37" height="37" fill="black" />
<rect shape-rendering="optimizeSpeed"  x="863" y="863" width="37" height="37" fill="black" />
<rect shape-rendering="optimizeSpeed"  x="937" y="863" width="37" height="37" fill="black" />
<rect shape-rendering="optimizeSpeed"  x="49" y="900" width="37" height="37" fill="black" />
<rect shape-rendering="optimizeSpeed"  x="271" y="900" width="37" height="37" fill="black" />
<rect shape-rendering="optimizeSpeed"  x="345" y="900" width="37" height="37" fill="black" />
<rect shape-rendering="optimizeSpeed"  x="419" y="900" width="37" height="37" fill="black" />
<rect shape-rendering="optimizeSpeed"  x="456" y="900" width="37" height="37" fill="black" />
<rect shape-rendering="optimizeSpeed"  x="641" y="900" width="37" height="37" fill="black" />
<rect shape-rendering="optimizeSpeed"  x="715" y="900" width="37" height="37" fill="black" />
<rect shape-rendering="optimizeSpeed"  x="752" y="900" width="37" height="37" fill="black" />
<rect shape-rendering="optimizeSpeed"  x="789" y="900" width="37" height="37" fill="black" />
<rect shape-rendering="optimizeSpeed"  x="826" y="900" width="37" height="37" fill="black" />
<rect shape-rendering="optimizeSpeed"  x="937" y="900" width="37" height="37" fill="black" />
<rect shape-rendering="optimizeSpeed"  x="49" y="937" width="37" height="37" fill="black" />
<rect shape-rendering="optimizeSpeed"  x="86" y="937" width="37" height="37" fill="black" />
<rect shape-rendering="optimizeSpeed"  x="123" y="937" width="37" height="37" fill="black" />
<rect shape-rendering="optimizeSpeed"  x="160" y="937" width="37" height="37" fill="black" />
<rect shape-rendering="optimizeSpeed"  x="197" y="937" width="37" height="37" fill="black" />
<rect shape-rendering="optimizeSpeed"  x="234" y="937" width="37" height="37" fill="black" />
<rect shape-rendering="optimizeSpeed"  x="271" y="937" width="37" height="37" fill="black" />
<rect shape-rendering="optimizeSpeed"  x="345" y="937" width="37" height="37" fill="black" />
<rect shape-rendering="optimizeSpeed"  x="382" y="937" width="37" height="37" fill="black" />
<rect shape-rendering="optimizeSpeed"  x="456" y="937" width="37" height="37" fill="black" />
<rect shape-rendering="optimizeSpeed"  x="493" y="937" width="37" height="37" fill="black" />
<rect shape-rendering="optimizeSpeed"  x="530" y="937" width="37" height="37" fill="black" />
<rect shape-rendering="optimizeSpeed"  x="678" y="937" width="37" height="37" fill="black" />
<rect shape-rendering="optimizeSpeed"  x="715" y="937" width="37" height="37" fill="black" />
<rect shape-rendering="optimizeSpeed"  x="752" y="937" width="37" height="37" fill="black" />
<rect shape-rendering="optimizeSpeed"  x="789" y="937" width="37" height="37" fill="black" />
<rect shape-rendering="optimizeSpeed"  x="826" y="937" width="37" height="37" fill="black" />
<rect shape-rendering="optimizeSpeed"  x="863" y="937" width="37" height="37" fill="black" />
<rect shape-rendering="optimizeSpeed"  x="900" y="937" width="37" height="37" fill="black" />
<rect shape-rendering="optimizeSpeed"  x="937" y="937" width="37" height="37" fill="black" /></svg>